<svg xmlns="http://www.w3.org/2000/svg" width="629" height="760" viewBox="0 0 629 760"><path d="M 436 85.167 C 469.617 101.005, 487.182 114.987, 505.512 140.500 C 512.634 150.413, 523.241 170.880, 527.970 183.835 C 546.036 233.325, 554.598 286.658, 555.126 353 C 555.235 366.634, 555.510 370.845, 556.042 367 C 557.897 353.583, 556.505 305.623, 553.459 278 C 548.954 237.143, 538.080 195.630, 524.384 167 C 509.550 135.989, 486.073 110.368, 457.900 94.444 C 451.090 90.594, 439.904 85.570, 436 84.606 L 433.500 83.989 436 85.167 M 113.354 132.626 C 88.652 159.754, 73.906 187.314, 66.828 219.583 C 64.125 231.905, 63.804 257.151, 65.881 294 C 67.385 320.687, 66.946 344.080, 64.411 372.366 C 63.579 381.643, 63.084 389.417, 63.310 389.643 C 63.892 390.225, 66.741 367.902, 68.050 352.500 C 69.509 335.350, 69.511 290.118, 68.054 267.271 C 64.754 215.502, 78.342 175.537, 113.202 134.480 C 118.096 128.716, 121.900 124, 121.654 124 C 121.409 124, 117.674 127.881, 113.354 132.626 M 365.542 199.938 C 366.115 200.797, 369.077 204.425, 372.124 208 C 425.946 271.147, 472.905 374.837, 485.897 459.222 L 487.702 470.945 482.302 472.514 L 476.902 474.084 463.343 501.792 C 448.367 532.394, 444.363 540.999, 445.796 539.500 C 451.711 533.311, 477.160 496.791, 483.949 484.750 C 485.732 481.587, 487.598 479.252, 488.095 479.559 C 488.593 479.866, 489.019 485.604, 489.043 492.309 C 489.117 513.158, 490.768 536.072, 492.945 546.436 C 497.552 568.378, 507.262 591.604, 519.726 610.500 C 526.199 620.314, 536.015 632.799, 540.904 637.437 C 542.607 639.052, 544 640.933, 544 641.615 C 544 643.351, 560.360 658.178, 571.088 666.164 C 581.936 674.241, 596.114 682.799, 606.451 687.510 C 617.553 692.569, 617.013 691.775, 605 685.379 C 585.114 674.790, 570.272 663.906, 551.383 646.059 C 538.490 633.877, 532.413 626.646, 522.993 612.276 C 510.906 593.838, 502.141 574.015, 497.448 554.500 C 493.708 538.949, 492.957 531.410, 492.421 504 C 491.794 471.943, 491.341 466.902, 486.900 442.500 C 473.833 370.701, 428.663 274.360, 381.408 217.500 C 373.194 207.617, 363.524 196.913, 365.542 199.938 M 230.500 218.587 C 228.300 219.976, 221.133 223.792, 214.573 227.068 C 199.817 234.437, 190.472 241.324, 177.250 254.574 L 167 264.845 166.912 259.173 C 166.864 256.053, 166.527 251.265, 166.162 248.534 L 165.500 243.568 159.072 251.534 C 134.545 281.929, 118.179 318.934, 112.525 356.779 C 111.680 362.432, 109.462 372.107, 107.595 378.279 C 94.709 420.872, 91.701 465.133, 99.079 503.606 C 100.144 509.164, 103.463 521.667, 106.452 531.390 C 114.009 555.967, 115.406 565.182, 114.712 585.892 C 114.136 603.106, 111.927 615.277, 107.050 628.109 C 104.787 634.064, 104.535 635.254, 106.016 633 C 108.180 629.706, 113.920 609.901, 115.539 600.140 C 116.877 592.072, 117.134 586.322, 116.699 574.140 C 116.091 557.081, 115 550.989, 108.945 530.850 C 95.388 485.762, 94.875 444.127, 107.255 393.661 C 109.883 382.951, 110.531 381.245, 110.735 384.500 C 111.356 394.390, 112.217 401, 112.885 401 C 114.884 401, 127.844 388.926, 133.437 381.853 C 140.723 372.639, 149.468 356.362, 153.775 344 C 159.956 326.255, 164.582 301.867, 165.706 281.097 L 166.322 269.694 172.595 262.502 C 186.911 246.088, 198.914 236.626, 217.632 227.002 C 224.305 223.571, 231.055 219.708, 232.632 218.418 C 236.371 215.360, 235.504 215.429, 230.500 218.587 M 468.004 257.250 C 468.011 266.418, 470.108 293.739, 471.543 303.357 C 477.158 341.003, 489.382 369.715, 508.326 389.750 C 511.056 392.637, 513.900 395, 514.645 395 C 515.715 395, 516 392.278, 516 382.051 C 516 339.797, 502.049 298.701, 474.656 260.266 C 471.820 256.288, 469.163 253.025, 468.750 253.016 C 468.337 253.007, 468.002 254.912, 468.004 257.250 M 139.051 477.746 C 145.974 490.415, 156.151 505.987, 167.607 521.438 C 173.529 529.424, 178.517 535.817, 178.690 535.643 C 178.864 535.469, 172.268 521.545, 164.033 504.700 L 149.061 474.073 143.280 472.468 C 140.101 471.585, 136.896 470.667, 136.157 470.427 C 135.419 470.188, 136.721 473.481, 139.051 477.746 M 285.172 504.552 C 279.843 507.257, 276.907 510.450, 268.691 522.473 C 263.974 529.375, 256.115 535.709, 250.357 537.250 C 247.961 537.890, 246 538.935, 246 539.570 C 246 541.133, 251.345 547.863, 255.292 551.269 C 267.225 561.569, 291.185 568.992, 312.500 568.992 C 328.960 568.992, 348.270 564.339, 360.810 557.351 C 366.582 554.135, 378 543.913, 378 541.961 C 378 541.511, 378.707 540.436, 379.571 539.571 C 381 538.143, 380.886 537.998, 378.321 537.978 C 370.785 537.919, 361.745 530.807, 353.366 518.344 C 344.707 505.464, 337.855 501.282, 327.019 502.265 C 323.890 502.548, 319.343 503.651, 316.915 504.715 C 312.541 506.630, 312.458 506.630, 308.016 504.674 C 305.550 503.588, 300.600 502.508, 297.016 502.273 C 291.412 501.907, 289.755 502.225, 285.172 504.552 M 169.084 584 C 169.041 584.275, 170.316 589.683, 171.917 596.018 C 175.810 611.418, 177.043 621.006, 177.069 636.080 C 177.093 650.179, 176.063 658.186, 172.478 671.783 C 165.695 697.505, 147.583 722.724, 121 743.461 C 111.540 750.840, 110.495 751.905, 115.500 749.064 C 128.724 741.560, 146.329 725.714, 156.500 712.161 C 163.240 703.181, 169.424 691.466, 174.074 678.872 C 182.286 656.629, 182.409 625.963, 174.398 598.263 C 172.206 590.683, 169.272 582.808, 169.084 584 M 221.394 602.299 C 233.236 618.894, 239.930 641.162, 240.038 664.322 L 240.077 672.500 244.511 667.500 C 249.759 661.582, 254.196 653.587, 256.405 646.068 C 258.335 639.495, 258.498 623.568, 256.705 616.654 L 255.448 611.808 237.974 604.398 C 214.647 594.505, 215.950 594.670, 221.394 602.299 M 389.028 603.938 L 370.557 611.790 369.298 616.645 C 367.502 623.567, 367.664 639.492, 369.595 646.068 C 371.804 653.587, 376.241 661.582, 381.489 667.500 L 385.923 672.500 385.962 664.322 C 386.070 641.221, 392.767 618.890, 404.529 602.406 C 407.044 598.883, 408.741 596.019, 408.301 596.043 C 407.860 596.066, 399.188 599.619, 389.028 603.938 M 435.569 606.184 C 428.206 626.049, 425.572 642.372, 426.276 663.786 C 426.978 685.165, 431.109 700.124, 440.004 713.500 C 444.583 720.387, 445.130 720.163, 441.453 712.907 C 436.964 704.048, 433.161 692.447, 430.936 680.821 C 429.080 671.127, 428.855 667.407, 429.369 654.937 C 430.025 639.048, 432.542 622.512, 436.430 608.545 C 437.802 603.620, 438.774 599.441, 438.591 599.258 C 438.409 599.075, 437.049 602.192, 435.569 606.184 M 81.337 672.750 C 79.106 675.913, 73.321 683, 68.483 688.500 C 61.469 696.473, 60.856 697.385, 65.460 693 C 73.087 685.735, 86 670.308, 86 668.462 C 86 667.658, 85.864 667, 85.697 667 C 85.530 667, 83.568 669.587, 81.337 672.750" stroke="none" fill="#5a5a5a" fill-rule="evenodd"></path><path d="M 269.678 1.077 C 225.626 5.533, 184.428 18.586, 149.861 39.041 C 115.144 59.585, 83.359 90.874, 61.522 126 C 35.314 168.157, 12.202 237.819, 3.628 300.500 C 0.509 323.300, -0.252 339.375, 0.287 371.140 C 0.877 405.983, 2.368 420.382, 8.516 450.602 C 18.434 499.363, 34.081 541.262, 64.609 600.806 C 72.026 615.274, 79.392 631.080, 80.977 635.929 C 87.640 656.318, 87.524 678.653, 80.651 699.148 L 78.375 705.934 82.595 706.566 C 84.916 706.915, 98.444 706.987, 112.657 706.727 C 134.089 706.335, 140.081 705.896, 147.760 704.157 C 152.854 703.003, 157.965 701.554, 159.118 700.937 C 162.050 699.368, 169.454 683.248, 172.435 671.942 C 176.064 658.183, 177.093 650.220, 177.069 636.080 C 177.043 621.027, 175.811 611.425, 171.936 596.081 C 170.344 589.780, 169.211 584.455, 169.418 584.249 C 169.625 584.042, 170.962 587.389, 172.391 591.687 C 178.667 610.566, 181.554 632.809, 180.010 650.385 C 178.563 666.857, 175.255 678.628, 168.076 692.849 C 164.942 699.059, 164.926 699.159, 167.192 698.469 C 172.513 696.850, 186.937 688.688, 192.621 684.080 C 212.604 667.881, 222.091 640.881, 218.962 609.113 C 218.334 602.736, 217.609 597.176, 217.351 596.759 C 217.093 596.341, 217.138 596, 217.451 596 C 218.224 596, 248.027 608.560, 255.500 612.035 C 265.107 616.503, 311.888 636, 313 636 C 314.112 636, 360.893 616.503, 370.500 612.035 C 379.945 607.643, 407.874 596, 408.965 596 C 409.585 596, 409.543 597.020, 408.852 598.750 C 405.586 606.924, 406.191 629.848, 410.043 643.888 C 412.405 652.497, 418.527 664.746, 423.257 670.327 L 426.500 674.153 426.166 660.862 C 425.801 646.300, 426.936 636.316, 430.528 622.489 C 432.898 613.368, 437.990 598.657, 438.575 599.241 C 438.748 599.415, 437.588 604.411, 435.997 610.343 C 431.339 627.705, 429.661 640.594, 429.576 659.666 C 429.501 676.645, 429.527 676.860, 432 679.502 C 436.058 683.836, 447.671 691.084, 457.001 695.106 C 477.091 703.768, 496.246 707, 527.485 707 C 547.799 707, 549.165 706.886, 548.461 705.250 C 546.388 700.429, 543.019 687.382, 541.936 679.977 C 540.611 670.916, 541.136 654.955, 543.049 646.142 L 544.212 640.784 539.738 636.142 C 517.639 613.213, 499.776 578.968, 492.945 546.436 C 490.768 536.072, 489.117 513.158, 489.043 492.309 C 489.019 485.604, 488.593 479.866, 488.095 479.559 C 487.598 479.252, 485.732 481.587, 483.949 484.750 C 477.160 496.791, 451.711 533.311, 445.796 539.500 C 444.363 540.999, 448.367 532.394, 463.343 501.792 L 476.902 474.084 482.302 472.514 L 487.702 470.945 485.897 459.222 C 472.905 374.837, 425.946 271.147, 372.124 208 C 364.935 199.566, 363.356 197.163, 368.799 202.938 C 420.247 257.536, 472.544 363.619, 486.900 442.500 C 491.341 466.902, 491.794 471.943, 492.421 504 C 492.957 531.410, 493.708 538.949, 497.448 554.500 C 503.789 580.867, 518.875 609.967, 538.088 632.894 L 544.285 640.288 546.993 632.894 C 548.482 628.827, 555.591 614.025, 562.790 600 C 577.391 571.554, 584.431 556.393, 592.973 535 C 635.620 428.184, 638.725 321.835, 602.459 210 C 583.047 150.139, 561.733 112.717, 527.529 78.442 C 486.212 37.040, 436.754 13.056, 371.531 2.793 C 360.292 1.025, 352.999 0.704, 318.500 0.464 C 296.500 0.310, 274.530 0.586, 269.678 1.077 M 436 85.167 C 469.617 101.005, 487.182 114.987, 505.512 140.500 C 512.634 150.413, 523.241 170.880, 527.970 183.835 C 546.036 233.325, 554.598 286.658, 555.126 353 C 555.235 366.634, 555.510 370.845, 556.042 367 C 557.897 353.583, 556.505 305.623, 553.459 278 C 548.954 237.143, 538.080 195.630, 524.384 167 C 509.550 135.989, 486.073 110.368, 457.900 94.444 C 451.090 90.594, 439.904 85.570, 436 84.606 L 433.500 83.989 436 85.167 M 113.354 132.626 C 88.652 159.754, 73.906 187.314, 66.828 219.583 C 64.125 231.905, 63.804 257.151, 65.881 294 C 67.385 320.687, 66.946 344.080, 64.411 372.366 C 63.579 381.643, 63.084 389.417, 63.310 389.643 C 63.892 390.225, 66.741 367.902, 68.050 352.500 C 69.509 335.350, 69.511 290.118, 68.054 267.271 C 64.754 215.502, 78.342 175.537, 113.202 134.480 C 118.096 128.716, 121.900 124, 121.654 124 C 121.409 124, 117.674 127.881, 113.354 132.626 M 230.500 218.587 C 228.300 219.976, 221.133 223.792, 214.573 227.068 C 199.817 234.437, 190.472 241.324, 177.250 254.574 L 167 264.845 166.912 259.173 C 166.864 256.053, 166.527 251.265, 166.162 248.534 L 165.500 243.568 159.072 251.534 C 134.545 281.929, 118.179 318.934, 112.525 356.779 C 111.680 362.432, 109.462 372.107, 107.595 378.279 C 94.709 420.872, 91.701 465.133, 99.079 503.606 C 100.144 509.164, 103.463 521.667, 106.452 531.390 C 114.009 555.967, 115.406 565.182, 114.712 585.892 C 114.136 603.106, 111.927 615.277, 107.050 628.109 C 104.787 634.064, 104.535 635.254, 106.016 633 C 108.180 629.706, 113.920 609.901, 115.539 600.140 C 116.877 592.072, 117.134 586.322, 116.699 574.140 C 116.091 557.081, 115 550.989, 108.945 530.850 C 95.388 485.762, 94.875 444.127, 107.255 393.661 C 109.883 382.951, 110.531 381.245, 110.735 384.500 C 111.356 394.390, 112.217 401, 112.885 401 C 114.884 401, 127.844 388.926, 133.437 381.853 C 140.723 372.639, 149.468 356.362, 153.775 344 C 159.956 326.255, 164.582 301.867, 165.706 281.097 L 166.322 269.694 172.595 262.502 C 186.911 246.088, 198.914 236.626, 217.632 227.002 C 224.305 223.571, 231.055 219.708, 232.632 218.418 C 236.371 215.360, 235.504 215.429, 230.500 218.587 M 468.004 257.250 C 468.011 266.418, 470.108 293.739, 471.543 303.357 C 477.158 341.003, 489.382 369.715, 508.326 389.750 C 511.056 392.637, 513.900 395, 514.645 395 C 515.715 395, 516 392.278, 516 382.051 C 516 339.797, 502.049 298.701, 474.656 260.266 C 471.820 256.288, 469.163 253.025, 468.750 253.016 C 468.337 253.007, 468.002 254.912, 468.004 257.250 M 139.051 477.746 C 145.974 490.415, 156.151 505.987, 167.607 521.438 C 173.529 529.424, 178.517 535.817, 178.690 535.643 C 178.864 535.469, 172.268 521.545, 164.033 504.700 L 149.061 474.073 143.280 472.468 C 140.101 471.585, 136.896 470.667, 136.157 470.427 C 135.419 470.188, 136.721 473.481, 139.051 477.746 M 285.172 504.552 C 279.843 507.257, 276.907 510.450, 268.691 522.473 C 263.974 529.375, 256.115 535.709, 250.357 537.250 C 247.961 537.890, 246 538.935, 246 539.570 C 246 541.133, 251.345 547.863, 255.292 551.269 C 267.225 561.569, 291.185 568.992, 312.500 568.992 C 328.960 568.992, 348.270 564.339, 360.810 557.351 C 366.582 554.135, 378 543.913, 378 541.961 C 378 541.511, 378.707 540.436, 379.571 539.571 C 381 538.143, 380.886 537.998, 378.321 537.978 C 370.785 537.919, 361.745 530.807, 353.366 518.344 C 344.707 505.464, 337.855 501.282, 327.019 502.265 C 323.890 502.548, 319.343 503.651, 316.915 504.715 C 312.541 506.630, 312.458 506.630, 308.016 504.674 C 305.550 503.588, 300.600 502.508, 297.016 502.273 C 291.412 501.907, 289.755 502.225, 285.172 504.552" stroke="none" fill="#f5f5f5" fill-rule="evenodd"></path></svg>